# xmcd
#
# Track frame offsets:
#	150
#	28057
#	50982
#	66545
#	69520
#	92585
#	108425
#	110832
#	128070
#	149935
#	164800
#	173207
#	190560
#	192300
#	210405
#	230142
#	247830
#	260050
#	276477
#	303562
#
# Disc length: 4399 seconds
#
# Revision: 0
# Processed by: cddbd v1.5.1PL0 Copyright (c) Steve Scherf et al.
# Submitted via: audiograbber 1.83.01
#
DISCID=46112d14
DTITLE=243234 - 234243
DYEAR=234
DGENRE=234234
TTITLE0=423
TTITLE1=234
TTITLE2=234
TTITLE3=234
TTITLE4=423
TTITLE5=423
TTITLE6=234423
TTITLE7=234
TTITLE8=342
TTITLE9=2344
TTITLE10=23423
TTITLE11=423
TTITLE12=342
TTITLE13=234234
TTITLE14=24
TTITLE15=234
TTITLE16=342
TTITLE17=342
TTITLE18=423
TTITLE19=234
EXTD=23234
EXTT0=
EXTT1=
EXTT2=
EXTT3=
EXTT4=
EXTT5=
EXTT6=
EXTT7=
EXTT8=
EXTT9=
EXTT10=
EXTT11=
EXTT12=
EXTT13=
EXTT14=
EXTT15=
EXTT16=
EXTT17=
EXTT18=
EXTT19=
PLAYORDER=
